<svg width="148" height="162" viewBox="0 0 148 162" fill="none" xmlns="http://www.w3.org/2000/svg">
<rect width="148" height="162" rx="12" fill="#F1F1F1"/>
<path d="M84 77.6667H77.3333V71C77.3333 70.1159 76.9821 69.2681 76.357 68.643C75.7319 68.0178 74.8841 67.6667 74 67.6667C73.1159 67.6667 72.2681 68.0178 71.643 68.643C71.0179 69.2681 70.6667 70.1159 70.6667 71L70.785 77.6667H64C63.116 77.6667 62.2681 78.0178 61.643 78.643C61.0179 79.2681 60.6667 80.1159 60.6667 81C60.6667 81.884 61.0179 82.7319 61.643 83.357C62.2681 83.9821 63.116 84.3333 64 84.3333L70.785 84.215L70.6667 91C70.6667 91.884 71.0179 92.7319 71.643 93.357C72.2681 93.9821 73.1159 94.3333 74 94.3333C74.8841 94.3333 75.7319 93.9821 76.357 93.357C76.9821 92.7319 77.3333 91.884 77.3333 91V84.215L84 84.3333C84.8841 84.3333 85.7319 83.9821 86.357 83.357C86.9821 82.7319 87.3333 81.884 87.3333 81C87.3333 80.1159 86.9821 79.2681 86.357 78.643C85.7319 78.0178 84.8841 77.6667 84 77.6667Z" fill="#D2D2D2"/>
</svg>
