<svg width="148" height="162" viewBox="0 0 148 162" fill="none" xmlns="http://www.w3.org/2000/svg">
<rect width="148" height="162" rx="12" fill="#F1F1F1"/>
<path fill-rule="evenodd" clip-rule="evenodd" d="M66.7106 81.9375H65.0625V90.375C65.0625 91.1209 64.7662 91.8363 64.2387 92.3637C63.7113 92.8912 62.9959 93.1875 62.25 93.1875C61.5041 93.1875 60.7887 92.8912 60.2613 92.3637C59.7338 91.8363 59.4375 91.1209 59.4375 90.375V67.875C59.4375 66.6318 59.9314 65.4395 60.8104 64.5604C61.6895 63.6814 62.8818 63.1875 64.125 63.1875H72.5625C74.8839 63.1859 77.1234 64.0456 78.8474 65.6002C80.5714 67.1549 81.6573 69.2939 81.8949 71.6032C82.1324 73.9124 81.5048 76.2277 80.1334 78.1008C78.762 79.9738 76.7444 81.2715 74.4712 81.7425L79.125 86.4L82.7625 82.7625C83.2932 82.2504 84.0038 81.9673 84.7412 81.974C85.4786 81.9808 86.1839 82.2769 86.7051 82.7986C87.2263 83.3203 87.5218 84.0259 87.5278 84.7633C87.5339 85.5007 87.2501 86.2111 86.7375 86.7413L83.1038 90.375L86.7413 94.0125C87.2533 94.5432 87.5365 95.2538 87.5297 95.9912C87.523 96.7286 87.2269 97.4339 86.7051 97.9551C86.1834 98.4763 85.4779 98.7718 84.7404 98.7778C84.003 98.7839 83.2927 98.5001 82.7625 97.9875L79.125 94.3538L75.4875 97.9913C74.9568 98.5033 74.2462 98.7865 73.5088 98.7797C72.7714 98.773 72.0661 98.4769 71.5449 97.9552C71.0237 97.4334 70.7282 96.7279 70.7222 95.9905C70.7161 95.253 70.9999 94.5427 71.5125 94.0125L75.1463 90.375L66.7106 81.9375ZM65.0625 76.3125V68.8125H72.5625C73.5571 68.8125 74.5109 69.2076 75.2141 69.9109C75.9174 70.6141 76.3125 71.5679 76.3125 72.5625C76.3125 73.5571 75.9174 74.5109 75.2141 75.2142C74.5109 75.9174 73.5571 76.3125 72.5625 76.3125H65.0625Z" fill="#D2D2D2"/>
</svg>
