<svg width="24" height="24" viewBox="0 0 24 24" fill="none" xmlns="http://www.w3.org/2000/svg">
<path d="M13.5 5.5C14.59 5.5 15.5 4.58 15.5 3.5C15.5 2.96957 15.2893 2.46086 14.9142 2.08579C14.5392 1.71071 14.0304 1.5 13.5 1.5C12.39 1.5 11.5 2.38 11.5 3.5C11.5 4.58 12.39 5.5 13.5 5.5ZM9.89001 19.38L10.89 15L13 17V23H15V15.5L12.89 13.5L13.5 10.5C14.1852 11.2851 15.0306 11.9145 15.9793 12.3457C16.9279 12.7769 17.9579 13 19 13V11C17.09 11 15.5 10 14.69 8.58L13.69 7C13.29 6.38 12.69 6 12 6C11.69 6 11.5 6.08 11.19 6.08L6.00001 8.28V13H8.00001V9.58L9.79001 8.88L8.19001 17L3.29001 16L2.89001 18L9.89001 19.38Z" fill="#002E4F"/>
</svg>
