<svg width="12" height="13" viewBox="0 0 12 13" fill="none" xmlns="http://www.w3.org/2000/svg">
<path d="M9.225 12.4534L9.915 11.7739L7.245 9.14432L6.555 9.82386C6.185 10.1883 6 10.6265 6 11.1386C6 11.6508 6.185 12.089 6.555 12.4534C6.925 12.8178 7.37 13 7.89 13C8.41 13 8.855 12.8178 9.225 12.4534ZM10.755 10.9466L11.445 10.267C11.815 9.90265 12 9.46439 12 8.95227C12 8.44015 11.815 8.00189 11.445 7.6375C11.075 7.27311 10.63 7.09091 10.11 7.09091C9.59 7.09091 9.145 7.27311 8.775 7.6375L8.085 8.31704L10.755 10.9466ZM2.4 4.72727H8.4V3.54545H2.4V4.72727ZM5.4 1.92045C5.53 1.92045 5.6376 1.8785 5.7228 1.79459C5.808 1.71068 5.8504 1.60491 5.85 1.47727C5.8496 1.34964 5.807 1.24386 5.7222 1.15995C5.6374 1.07605 5.53 1.03409 5.4 1.03409C5.27 1.03409 5.1626 1.07605 5.0778 1.15995C4.993 1.24386 4.9504 1.34964 4.95 1.47727C4.9496 1.60491 4.9922 1.71088 5.0778 1.79518C5.1634 1.87948 5.2708 1.92124 5.4 1.92045ZM4.875 11.8182H1.2C0.87 11.8182 0.5876 11.7026 0.3528 11.4713C0.118 11.2401 0.0004 10.9618 0 10.6364V2.36364C0 2.03864 0.1176 1.76052 0.3528 1.52927C0.588 1.29803 0.8704 1.18221 1.2 1.18182H3.72C3.85 0.827273 4.0676 0.541667 4.3728 0.325C4.678 0.108333 5.0204 0 5.4 0C5.7796 0 6.1222 0.108333 6.4278 0.325C6.7334 0.541667 6.9508 0.827273 7.08 1.18182H9.6C9.93 1.18182 10.2126 1.29764 10.4478 1.52927C10.683 1.76091 10.8004 2.03903 10.8 2.36364V5.98295C10.38 5.88447 9.9626 5.87698 9.5478 5.9605C9.133 6.04401 8.7504 6.19942 8.4 6.42673V5.90909H2.4V7.09091H7.635L6.435 8.27273H2.4V9.45455H5.325C5.095 9.79924 4.9374 10.176 4.8522 10.585C4.767 10.9939 4.7748 11.4049 4.8756 11.8182" fill="#808080"/>
</svg>
