<svg width="29" height="36" viewBox="0 0 29 36" fill="none" xmlns="http://www.w3.org/2000/svg">
<path fill-rule="evenodd" clip-rule="evenodd" d="M7.71062 18.75H6.0625V27.1875C6.0625 27.9334 5.76618 28.6488 5.23874 29.1762C4.71129 29.7037 3.99592 30 3.25 30C2.50408 30 1.78871 29.7037 1.26126 29.1762C0.733816 28.6488 0.4375 27.9334 0.4375 27.1875V4.6875C0.4375 3.4443 0.93136 2.25202 1.81044 1.37294C2.68951 0.493863 3.8818 2.32434e-06 5.125 2.32434e-06H13.5625C15.8839 -0.00163147 18.1234 0.858094 19.8474 2.41275C21.5714 3.9674 22.6573 6.1064 22.8949 8.41566C23.1324 10.7249 22.5048 13.0402 21.1334 14.9133C19.762 16.7863 17.7444 18.084 15.4712 18.555L20.125 23.2125L23.7625 19.575C24.2932 19.0629 25.0038 18.7798 25.7412 18.7865C26.4786 18.7933 27.1839 19.0894 27.7051 19.6111C28.2263 20.1328 28.5218 20.8384 28.5278 21.5758C28.5339 22.3132 28.2501 23.0236 27.7375 23.5538L24.1037 27.1875L27.7413 30.825C28.2533 31.3557 28.5365 32.0663 28.5297 32.8037C28.523 33.5411 28.2269 34.2464 27.7051 34.7676C27.1834 35.2888 26.4779 35.5843 25.7404 35.5903C25.003 35.5964 24.2927 35.3126 23.7625 34.8L20.125 31.1663L16.4875 34.8038C15.9568 35.3158 15.2462 35.599 14.5088 35.5922C13.7714 35.5855 13.0661 35.2894 12.5449 34.7677C12.0237 34.2459 11.7282 33.5404 11.7222 32.803C11.7161 32.0655 11.9999 31.3552 12.5125 30.825L16.1463 27.1875L7.71062 18.75ZM6.0625 13.125V5.625H13.5625C14.5571 5.625 15.5109 6.02009 16.2141 6.72335C16.9174 7.42661 17.3125 8.38044 17.3125 9.375C17.3125 10.3696 16.9174 11.3234 16.2141 12.0267C15.5109 12.7299 14.5571 13.125 13.5625 13.125H6.0625Z" fill="#0077B6"/>
</svg>
