<svg width="12" height="12" viewBox="0 0 12 12" fill="none" xmlns="http://www.w3.org/2000/svg">
<path d="M1.33333 11.25C1.16806 11.25 1.02961 11.194 0.918 11.082C0.806389 10.97 0.750389 10.8316 0.75 10.6667V9.25208C0.75 9.09653 0.779167 8.94817 0.8375 8.807C0.895833 8.66583 0.978472 8.54197 1.08542 8.43542L8.45 1.08542C8.56667 0.978472 8.69558 0.895833 8.83675 0.8375C8.97792 0.779167 9.12608 0.75 9.28125 0.75C9.43642 0.75 9.58711 0.779167 9.73333 0.8375C9.87955 0.895833 10.0059 0.983333 10.1125 1.1L10.9146 1.91667C11.0312 2.02361 11.1162 2.15 11.1695 2.29583C11.2228 2.44167 11.2496 2.5875 11.25 2.73333C11.25 2.88889 11.2232 3.03725 11.1695 3.17842C11.1158 3.31958 11.0309 3.44831 10.9146 3.56458L3.56458 10.9146C3.45764 11.0215 3.33358 11.1042 3.19242 11.1625C3.05125 11.2208 2.90308 11.25 2.74792 11.25H1.33333ZM9.26667 3.55L10.0833 2.73333L9.26667 1.91667L8.45 2.73333L9.26667 3.55Z" fill="#0077B6"/>
</svg>
