<svg width="178" height="43" viewBox="0 0 178 43" fill="none" xmlns="http://www.w3.org/2000/svg">
<g clip-path="url(#clip0_28_38)">
<path d="M24.7 5.72381C24.7 5.32406 24.376 5 23.9762 5H14.0238C13.6241 5 13.3 5.32406 13.3 5.72381V17.5515C13.3 17.9512 12.976 18.2753 12.5762 18.2753H0.72381C0.324061 18.2753 0 18.5994 0 18.9991V28.9515C0 29.3512 0.32406 29.6753 0.72381 29.6753H12.5762C12.976 29.6753 13.3 29.9994 13.3 30.3991V42.2266C13.3 42.6265 13.6241 42.9504 14.0238 42.9504H23.9762C24.376 42.9504 24.7 42.6265 24.7 42.2266V30.3991C24.7 29.9994 25.024 29.6753 25.4238 29.6753H37.2762C37.6761 29.6753 38 29.3512 38 28.9515V18.9991C38 18.5994 37.6761 18.2753 37.2762 18.2753H25.4238C25.024 18.2753 24.7 17.9512 24.7 17.5515V5.72381Z" fill="#0077B6"/>
<mask id="mask0_28_38" style="mask-type:luminance" maskUnits="userSpaceOnUse" x="10" y="13" width="18" height="18">
<path d="M27.3238 13.48H10.6762V30.1277H27.3238V13.48Z" fill="white"/>
</mask>
<g mask="url(#mask0_28_38)">
<path d="M24.2365 21.1081C23.9209 20.3977 23.4621 19.7601 22.8888 19.2352L22.4157 18.8011C22.3996 18.7868 22.3803 18.7766 22.3594 18.7715C22.3385 18.7664 22.3166 18.7665 22.2958 18.7718C22.2749 18.7771 22.2557 18.7874 22.2397 18.8019C22.2238 18.8164 22.2116 18.8345 22.2043 18.8548L21.993 19.4612C21.8613 19.8416 21.6191 20.2301 21.2761 20.6122C21.2533 20.6366 21.2273 20.6431 21.2094 20.6447C21.1915 20.6463 21.1639 20.6431 21.1395 20.6203C21.1167 20.6008 21.1053 20.5716 21.107 20.5423C21.1671 19.5636 20.8745 18.4597 20.234 17.2583C19.7039 16.2601 18.9675 15.4813 18.0473 14.9383L17.3759 14.5433C17.2881 14.4913 17.1759 14.5596 17.1808 14.662L17.2166 15.4423C17.241 15.9756 17.1792 16.447 17.0329 16.8388C16.854 17.3184 16.5971 17.7639 16.2687 18.1638C16.0402 18.4418 15.7812 18.6932 15.4965 18.9133C14.811 19.4403 14.2535 20.1156 13.8659 20.8886C13.4793 21.6683 13.2779 22.5268 13.2774 23.3971C13.2774 24.1644 13.4286 24.9074 13.7277 25.6081C14.0165 26.2827 14.4334 26.895 14.9551 27.4111C15.4819 27.9313 16.0932 28.341 16.7744 28.6255C17.4799 28.9214 18.2278 29.0709 19 29.0709C19.7722 29.0709 20.5201 28.9214 21.2256 28.6271C21.9052 28.3443 22.5231 27.9318 23.0449 27.4127C23.5716 26.8924 23.9845 26.2844 24.2723 25.6098C24.571 24.911 24.7242 24.1587 24.7226 23.3987C24.7226 22.6054 24.5601 21.8348 24.2365 21.1081Z" fill="white"/>
<path d="M19.754 20.5674H17.8841V23.3721H15.0794V25.2419H17.8841V29.9166H19.754V25.2419H22.5588V23.3721H19.754V20.5674Z" fill="#0077B6"/>
</g>
</g>
<path d="M63.3239 14.7102C63.2784 14.2519 63.0833 13.8958 62.7386 13.642C62.3939 13.3883 61.9261 13.2614 61.3352 13.2614C60.9337 13.2614 60.5947 13.3182 60.3182 13.4318C60.0417 13.5417 59.8295 13.6951 59.6818 13.892C59.5379 14.089 59.4659 14.3125 59.4659 14.5625C59.4583 14.7708 59.5019 14.9527 59.5966 15.108C59.6951 15.2633 59.8295 15.3977 60 15.5114C60.1705 15.6212 60.3674 15.7178 60.5909 15.8011C60.8144 15.8807 61.053 15.9489 61.3068 16.0057L62.3523 16.2557C62.8598 16.3693 63.3258 16.5208 63.75 16.7102C64.1742 16.8996 64.5417 17.1326 64.8523 17.4091C65.1629 17.6856 65.4034 18.0114 65.5739 18.3864C65.7481 18.7614 65.8371 19.1913 65.8409 19.6761C65.8371 20.3883 65.6553 21.0057 65.2955 21.5284C64.9394 22.0473 64.4242 22.4508 63.75 22.7386C63.0795 23.0227 62.2708 23.1648 61.3239 23.1648C60.3845 23.1648 59.5663 23.0208 58.8693 22.733C58.1761 22.4451 57.6345 22.0189 57.2443 21.4545C56.858 20.8864 56.6553 20.1837 56.6364 19.3466H59.017C59.0436 19.7367 59.1553 20.0625 59.3523 20.3239C59.553 20.5814 59.8201 20.7765 60.1534 20.9091C60.4905 21.0379 60.8712 21.1023 61.2955 21.1023C61.7121 21.1023 62.0739 21.0417 62.3807 20.9205C62.6913 20.7992 62.9318 20.6307 63.1023 20.4148C63.2727 20.1989 63.358 19.9508 63.358 19.6705C63.358 19.4091 63.2803 19.1894 63.125 19.0114C62.9735 18.8333 62.75 18.6818 62.4545 18.5568C62.1629 18.4318 61.8049 18.3182 61.3807 18.2159L60.1136 17.8977C59.1326 17.6591 58.358 17.286 57.7898 16.7784C57.2216 16.2708 56.9394 15.5871 56.9432 14.7273C56.9394 14.0227 57.1269 13.4072 57.5057 12.8807C57.8883 12.3542 58.4129 11.9432 59.0795 11.6477C59.7462 11.3523 60.5038 11.2045 61.3523 11.2045C62.2159 11.2045 62.9697 11.3523 63.6136 11.6477C64.2614 11.9432 64.7652 12.3542 65.125 12.8807C65.4848 13.4072 65.6705 14.017 65.6818 14.7102H63.3239ZM67.0526 13.392V11.3636H76.6094V13.392H73.0469V23H70.6151V13.392H67.0526ZM79.0057 23.1477C78.6307 23.1477 78.3087 23.0152 78.0398 22.75C77.7746 22.4811 77.642 22.1591 77.642 21.7841C77.642 21.4129 77.7746 21.0947 78.0398 20.8295C78.3087 20.5644 78.6307 20.4318 79.0057 20.4318C79.3693 20.4318 79.6875 20.5644 79.9602 20.8295C80.233 21.0947 80.3693 21.4129 80.3693 21.7841C80.3693 22.0341 80.3049 22.2633 80.1761 22.4716C80.0511 22.6761 79.8864 22.8409 79.6818 22.9659C79.4773 23.0871 79.2519 23.1477 79.0057 23.1477ZM88.0185 11.3636V23H85.5582V11.3636H88.0185ZM97.7585 15.125C97.679 14.8485 97.5672 14.6042 97.4233 14.392C97.2794 14.1761 97.1032 13.9943 96.8949 13.8466C96.6903 13.6951 96.4555 13.5795 96.1903 13.5C95.929 13.4205 95.6392 13.3807 95.321 13.3807C94.7263 13.3807 94.2036 13.5284 93.7528 13.8239C93.3059 14.1193 92.9574 14.5492 92.7074 15.1136C92.4574 15.6742 92.3324 16.3598 92.3324 17.1705C92.3324 17.9811 92.4555 18.6705 92.7017 19.2386C92.9479 19.8068 93.2964 20.2405 93.7472 20.5398C94.1979 20.8352 94.7301 20.983 95.3438 20.983C95.9006 20.983 96.3759 20.8845 96.7699 20.6875C97.1676 20.4867 97.4706 20.2045 97.679 19.8409C97.8911 19.4773 97.9972 19.0473 97.9972 18.5511L98.4972 18.625H95.4972V16.7727H100.366V18.2386C100.366 19.2614 100.151 20.1402 99.7188 20.875C99.2869 21.6061 98.6922 22.1705 97.9347 22.5682C97.1771 22.9621 96.3097 23.1591 95.3324 23.1591C94.2415 23.1591 93.2831 22.9186 92.4574 22.4375C91.6316 21.9527 90.9877 21.2652 90.5256 20.375C90.0672 19.4811 89.8381 18.4205 89.8381 17.1932C89.8381 16.25 89.9744 15.4091 90.2472 14.6705C90.5237 13.928 90.91 13.2992 91.4062 12.7841C91.9025 12.2689 92.4801 11.8769 93.1392 11.608C93.7983 11.339 94.5123 11.2045 95.2812 11.2045C95.9403 11.2045 96.554 11.3011 97.1222 11.4943C97.6903 11.6837 98.1941 11.9527 98.6335 12.3011C99.0767 12.6496 99.4384 13.0644 99.7188 13.5455C99.9991 14.0227 100.179 14.5492 100.259 15.125H97.7585ZM111.947 11.3636V23H109.822L104.76 15.6761H104.675V23H102.214V11.3636H104.374L109.396 18.6818H109.499V11.3636H111.947ZM115.986 23H113.349L117.366 11.3636H120.537L124.548 23H121.912L118.997 14.0227H118.906L115.986 23ZM115.821 18.4261H122.048V20.3466H115.821V18.4261ZM124.084 13.392V11.3636H133.641V13.392H130.078V23H127.646V13.392H124.084ZM137.675 11.3636V23H135.214V11.3636H137.675ZM146.886 11.3636H149.347V18.9205C149.347 19.7689 149.144 20.5114 148.739 21.1477C148.337 21.7841 147.775 22.2803 147.051 22.6364C146.328 22.9886 145.485 23.1648 144.523 23.1648C143.557 23.1648 142.712 22.9886 141.989 22.6364C141.265 22.2803 140.703 21.7841 140.301 21.1477C139.9 20.5114 139.699 19.7689 139.699 18.9205V11.3636H142.159V18.7102C142.159 19.1534 142.256 19.5473 142.449 19.892C142.646 20.2367 142.922 20.5076 143.278 20.7045C143.634 20.9015 144.049 21 144.523 21C145 21 145.415 20.9015 145.767 20.7045C146.123 20.5076 146.398 20.2367 146.591 19.892C146.788 19.5473 146.886 19.1534 146.886 18.7102V11.3636ZM157.683 14.7102C157.638 14.2519 157.443 13.8958 157.098 13.642C156.753 13.3883 156.286 13.2614 155.695 13.2614C155.293 13.2614 154.954 13.3182 154.678 13.4318C154.401 13.5417 154.189 13.6951 154.041 13.892C153.897 14.089 153.825 14.3125 153.825 14.5625C153.818 14.7708 153.861 14.9527 153.956 15.108C154.054 15.2633 154.189 15.3977 154.359 15.5114C154.53 15.6212 154.727 15.7178 154.95 15.8011C155.174 15.8807 155.412 15.9489 155.666 16.0057L156.712 16.2557C157.219 16.3693 157.685 16.5208 158.109 16.7102C158.534 16.8996 158.901 17.1326 159.212 17.4091C159.522 17.6856 159.763 18.0114 159.933 18.3864C160.107 18.7614 160.196 19.1913 160.2 19.6761C160.196 20.3883 160.015 21.0057 159.655 21.5284C159.299 22.0473 158.784 22.4508 158.109 22.7386C157.439 23.0227 156.63 23.1648 155.683 23.1648C154.744 23.1648 153.926 23.0208 153.229 22.733C152.536 22.4451 151.994 22.0189 151.604 21.4545C151.217 20.8864 151.015 20.1837 150.996 19.3466H153.376C153.403 19.7367 153.515 20.0625 153.712 20.3239C153.912 20.5814 154.179 20.7765 154.513 20.9091C154.85 21.0379 155.231 21.1023 155.655 21.1023C156.071 21.1023 156.433 21.0417 156.74 20.9205C157.051 20.7992 157.291 20.6307 157.462 20.4148C157.632 20.1989 157.717 19.9508 157.717 19.6705C157.717 19.4091 157.64 19.1894 157.484 19.0114C157.333 18.8333 157.109 18.6818 156.814 18.5568C156.522 18.4318 156.164 18.3182 155.74 18.2159L154.473 17.8977C153.492 17.6591 152.717 17.286 152.149 16.7784C151.581 16.2708 151.299 15.5871 151.303 14.7273C151.299 14.0227 151.486 13.4072 151.865 12.8807C152.248 12.3542 152.772 11.9432 153.439 11.6477C154.106 11.3523 154.863 11.2045 155.712 11.2045C156.575 11.2045 157.329 11.3523 157.973 11.6477C158.621 11.9432 159.125 12.3542 159.484 12.8807C159.844 13.4072 160.03 14.017 160.041 14.7102H157.683ZM57.233 28.8182H58.7045L62.1648 37.2699H62.2841L65.7443 28.8182H67.2159V39H66.0625V31.2642H65.9631L62.7812 39H61.6676L58.4858 31.2642H58.3864V39H57.233V28.8182ZM69.688 39V28.8182H75.8329V29.9119H70.921V33.3523H75.5147V34.446H70.921V37.9062H75.9125V39H69.688ZM81.1973 39H78.0552V28.8182H81.3365C82.3242 28.8182 83.1693 29.022 83.872 29.4297C84.5746 29.834 85.1132 30.4157 85.4877 31.1747C85.8623 31.9304 86.0495 32.8352 86.0495 33.8892C86.0495 34.9498 85.8606 35.8629 85.4828 36.6286C85.1049 37.3909 84.5547 37.9775 83.8322 38.3885C83.1097 38.7962 82.2314 39 81.1973 39ZM79.2882 37.9062H81.1177C81.9596 37.9062 82.6573 37.7438 83.2108 37.419C83.7643 37.0942 84.1769 36.6319 84.4487 36.032C84.7205 35.4321 84.8564 34.7178 84.8564 33.8892C84.8564 33.0672 84.7221 32.3596 84.4537 31.7663C84.1852 31.1697 83.7842 30.7124 83.2505 30.3942C82.7169 30.0727 82.0524 29.9119 81.2569 29.9119H79.2882V37.9062ZM89.3507 28.8182V39H88.1177V28.8182H89.3507ZM100.016 32H98.783C98.7101 31.6454 98.5825 31.3338 98.4002 31.0653C98.2212 30.7969 98.0025 30.5715 97.744 30.3892C97.4888 30.2036 97.2054 30.0644 96.8938 29.9716C96.5823 29.8788 96.2575 29.8324 95.9194 29.8324C95.3029 29.8324 94.7444 29.9882 94.244 30.2997C93.7468 30.6113 93.3507 31.0703 93.0558 31.6768C92.7641 32.2834 92.6183 33.0275 92.6183 33.9091C92.6183 34.7907 92.7641 35.5348 93.0558 36.1413C93.3507 36.7479 93.7468 37.2069 94.244 37.5185C94.7444 37.83 95.3029 37.9858 95.9194 37.9858C96.2575 37.9858 96.5823 37.9394 96.8938 37.8466C97.2054 37.7538 97.4888 37.6162 97.744 37.4339C98.0025 37.2483 98.2212 37.0213 98.4002 36.7528C98.5825 36.4811 98.7101 36.1695 98.783 35.8182H100.016C99.9232 36.3385 99.7541 36.8042 99.5089 37.2152C99.2636 37.6262 98.9587 37.9759 98.5941 38.2642C98.2295 38.5492 97.8202 38.7663 97.3661 38.9155C96.9154 39.0646 96.4331 39.1392 95.9194 39.1392C95.051 39.1392 94.2788 38.9271 93.6026 38.5028C92.9265 38.0786 92.3945 37.4754 92.0067 36.6932C91.619 35.911 91.4251 34.983 91.4251 33.9091C91.4251 32.8352 91.619 31.9072 92.0067 31.125C92.3945 30.3428 92.9265 29.7396 93.6026 29.3153C94.2788 28.8911 95.051 28.679 95.9194 28.679C96.4331 28.679 96.9154 28.7536 97.3661 28.9027C97.8202 29.0518 98.2295 29.2706 98.5941 29.5589C98.9587 29.844 99.2636 30.192 99.5089 30.603C99.7541 31.0107 99.9232 31.4763 100.016 32ZM102.426 39H101.133L104.872 28.8182H106.145L109.883 39H108.591L105.548 30.429H105.469L102.426 39ZM102.903 35.0227H108.113V36.1165H102.903V35.0227ZM111.469 39V28.8182H112.702V37.9062H117.435V39H111.469ZM131.475 32H130.242C130.169 31.6454 130.041 31.3338 129.859 31.0653C129.68 30.7969 129.461 30.5715 129.203 30.3892C128.948 30.2036 128.664 30.0644 128.353 29.9716C128.041 29.8788 127.716 29.8324 127.378 29.8324C126.762 29.8324 126.203 29.9882 125.703 30.2997C125.206 30.6113 124.81 31.0703 124.515 31.6768C124.223 32.2834 124.077 33.0275 124.077 33.9091C124.077 34.7907 124.223 35.5348 124.515 36.1413C124.81 36.7479 125.206 37.2069 125.703 37.5185C126.203 37.83 126.762 37.9858 127.378 37.9858C127.716 37.9858 128.041 37.9394 128.353 37.8466C128.664 37.7538 128.948 37.6162 129.203 37.4339C129.461 37.2483 129.68 37.0213 129.859 36.7528C130.041 36.4811 130.169 36.1695 130.242 35.8182H131.475C131.382 36.3385 131.213 36.8042 130.968 37.2152C130.723 37.6262 130.418 37.9759 130.053 38.2642C129.689 38.5492 129.279 38.7663 128.825 38.9155C128.374 39.0646 127.892 39.1392 127.378 39.1392C126.51 39.1392 125.738 38.9271 125.062 38.5028C124.385 38.0786 123.854 37.4754 123.466 36.6932C123.078 35.911 122.884 34.983 122.884 33.9091C122.884 32.8352 123.078 31.9072 123.466 31.125C123.854 30.3428 124.385 29.7396 125.062 29.3153C125.738 28.8911 126.51 28.679 127.378 28.679C127.892 28.679 128.374 28.7536 128.825 28.9027C129.279 29.0518 129.689 29.2706 130.053 29.5589C130.418 29.844 130.723 30.192 130.968 30.603C131.213 31.0107 131.382 31.4763 131.475 32ZM133.467 39V28.8182H139.612V29.9119H134.7V33.3523H139.294V34.446H134.7V37.9062H139.692V39H133.467ZM149.908 28.8182V39H148.715L143.167 31.0057H143.067V39H141.835V28.8182H143.028L148.596 36.8324H148.695V28.8182H149.908ZM151.819 29.9119V28.8182H159.455V29.9119H156.253V39H155.02V29.9119H151.819ZM161.358 39V28.8182H167.503V29.9119H162.591V33.3523H167.185V34.446H162.591V37.9062H167.582V39H161.358ZM169.725 39V28.8182H173.165C173.961 28.8182 174.614 28.9541 175.124 29.2259C175.635 29.4943 176.013 29.8639 176.258 30.3345C176.503 30.8052 176.626 31.3404 176.626 31.9403C176.626 32.5402 176.503 33.0722 176.258 33.5362C176.013 34.0002 175.636 34.3648 175.129 34.63C174.622 34.8918 173.974 35.0227 173.185 35.0227H170.401V33.9091H173.146C173.689 33.9091 174.127 33.8295 174.458 33.6705C174.793 33.5114 175.035 33.286 175.184 32.9943C175.336 32.6993 175.413 32.348 175.413 31.9403C175.413 31.5327 175.336 31.1764 175.184 30.8714C175.031 30.5665 174.788 30.3312 174.453 30.1655C174.118 29.9964 173.676 29.9119 173.126 29.9119H170.958V39H169.725ZM174.518 34.4261L177.023 39H175.592L173.126 34.4261H174.518Z" fill="#0077B6"/>
<defs>
<clipPath id="clip0_28_38">
<rect width="38" height="38" fill="white" transform="translate(0 5)"/>
</clipPath>
</defs>
</svg>
