<svg width="151" height="119" viewBox="0 0 151 119" fill="none" xmlns="http://www.w3.org/2000/svg">
<path d="M137.361 92.7581L37.9843 83.9797C36.3978 83.8377 34.9325 83.072 33.9097 81.8506C32.887 80.6292 32.3903 79.0517 32.5287 77.4643L38.8427 5.9867C38.9847 4.39964 39.7502 2.93369 40.9713 1.91045C42.1923 0.887218 43.7692 0.390269 45.3559 0.528629L144.732 9.30708C146.319 9.44903 147.784 10.2147 148.807 11.4361C149.83 12.6576 150.326 14.235 150.188 15.8224L143.874 87.3C143.732 88.8871 142.966 90.3531 141.745 91.3763C140.524 92.3995 138.947 92.8965 137.361 92.7581Z" fill="#E6E6E6"/>
<path d="M40.2426 79.3696L135.945 87.8235C136.715 87.8915 137.48 87.6509 138.072 87.1546C138.664 86.6583 139.035 85.947 139.103 85.1772L145.119 17.076C145.187 16.3061 144.946 15.5408 144.45 14.9484C143.954 14.356 143.243 13.985 142.474 13.917L46.7711 5.46309C46.0016 5.39512 45.2366 5.63574 44.6444 6.13203C44.0521 6.62831 43.6812 7.3396 43.6132 8.10943L37.5975 76.2107C37.5295 76.9805 37.7699 77.7458 38.266 78.3382C38.762 78.9306 39.473 79.3016 40.2426 79.3696Z" fill="white"/>
<path d="M50.7647 40.966C50.1909 40.9153 49.6204 41.0948 49.1788 41.4649C48.7372 41.8349 48.4606 42.3654 48.4099 42.9394C48.3592 43.5135 48.5385 44.0842 48.9084 44.5259C49.2783 44.9677 49.8085 45.2444 50.3823 45.2951L131.936 52.4991C132.51 52.5498 133.08 52.3704 133.522 52.0003C133.963 51.6302 134.24 51.0998 134.291 50.5257C134.341 49.9517 134.162 49.381 133.792 48.9392C133.422 48.4974 132.892 48.2208 132.318 48.1701L50.7647 40.966Z" fill="#E6E6E6"/>
<path d="M49.588 54.2861C49.0141 54.2354 48.4437 54.4148 48.002 54.7849C47.5604 55.155 47.2838 55.6854 47.2331 56.2595C47.1824 56.8336 47.3617 57.4042 47.7316 57.846C48.1015 58.2878 48.6317 58.5644 49.2056 58.6151L130.759 65.8192C131.333 65.8699 131.903 65.6904 132.345 65.3204C132.787 64.9503 133.063 64.4199 133.114 63.8458C133.165 63.2717 132.985 62.701 132.615 62.2593C132.245 61.8175 131.715 61.5408 131.141 61.4901L49.588 54.2861Z" fill="#E6E6E6"/>
<path d="M82.3723 16.0591C82.1958 16.0436 82.0203 16.0989 81.8845 16.2128C81.7486 16.3266 81.6635 16.4897 81.6477 16.6663L80.1543 33.5728C80.1388 33.7494 80.1941 33.9249 80.3079 34.0608C80.4216 34.1966 80.5847 34.2818 80.7612 34.2976L103.956 36.3465C104.132 36.3619 104.307 36.3066 104.443 36.1928C104.579 36.0789 104.664 35.9158 104.68 35.7393L106.174 18.8327C106.189 18.6561 106.134 18.4806 106.02 18.3448C105.906 18.2089 105.743 18.1237 105.567 18.1079L82.3723 16.0591Z" fill="#1F4276"/>
<path d="M93.0052 27.9959C95.0274 28.1746 96.8116 26.6794 96.9903 24.6564C97.169 22.6333 95.6745 20.8485 93.6523 20.6699C91.6301 20.4912 89.8459 21.9864 89.6671 24.0095C89.4884 26.0325 90.9829 27.8173 93.0052 27.9959Z" fill="white"/>
<path d="M98.4967 34.1865C98.4468 34.7655 98.2595 35.3243 97.9502 35.8162L86.7657 34.8282C86.53 34.2446 86.4481 33.6102 86.5277 32.9858C86.6073 32.3614 86.8459 31.7678 87.2205 31.262C87.5951 30.7562 88.0932 30.3551 88.6672 30.0971C89.2411 29.8391 89.8717 29.7328 90.4985 29.7884L95.1587 30.2C96.1293 30.2852 97.0263 30.7526 97.6524 31.4995C98.2784 32.2463 98.5823 33.2114 98.4971 34.1824L98.4967 34.1865Z" fill="white"/>
<path d="M28.2519 115.025L31.7706 115.025L33.4441 101.447L28.2507 101.447L28.2519 115.025Z" fill="#FFB8B8"/>
<path d="M34.2841 114.019H27.4979V118.294H38.5569C38.5569 117.732 38.4464 117.176 38.2316 116.658C38.0169 116.139 37.7022 115.668 37.3054 115.271C36.9087 114.874 36.4376 114.559 35.9192 114.344C35.4008 114.13 34.8452 114.019 34.2841 114.019Z" fill="#2F2E41"/>
<path d="M9.28511 115.025L12.8041 115.025L14.4773 101.447L9.28389 101.447L9.28511 115.025Z" fill="#FFB8B8"/>
<path d="M15.3173 114.019H8.53113V118.294H19.5901C19.5901 117.732 19.4796 117.176 19.2648 116.658C19.0501 116.139 18.7354 115.668 18.3386 115.271C17.9419 114.874 17.4708 114.559 16.9524 114.344C16.434 114.13 15.8784 114.019 15.3173 114.019Z" fill="#2F2E41"/>
<path d="M19.5904 18.5014C15.4153 18.5014 12.0307 15.1155 12.0307 10.9387C12.0307 6.76192 15.4153 3.37598 19.5904 3.37598C23.7655 3.37598 27.1501 6.76192 27.1501 10.9387C27.1501 15.1155 23.7655 18.5014 19.5904 18.5014Z" fill="#FFB8B8"/>
<path d="M45.4394 60.26C45.3866 59.8412 45.2426 59.4391 45.0177 59.082C44.7928 58.7249 44.4923 58.4215 44.1374 58.1931C43.7826 57.9647 43.382 57.8169 42.9639 57.7602C42.5458 57.7035 42.1203 57.7391 41.7175 57.8647L37.4926 52.7981L33.7887 54.6156L39.8554 61.6867C40.1111 62.3498 40.6011 62.8959 41.2324 63.2218C41.8637 63.5476 42.5926 63.6304 43.2809 63.4546C43.9692 63.2787 44.5691 62.8564 44.9669 62.2676C45.3647 61.6788 45.5328 60.9645 45.4394 60.26Z" fill="#FFB8B8"/>
<path d="M9.07882 65.3841C9.25886 65.0023 9.35303 64.5857 9.35471 64.1636C9.3564 63.7415 9.26555 63.3242 9.08857 62.941C8.91158 62.5578 8.65277 62.2181 8.33036 61.9458C8.00794 61.6735 7.62976 61.4753 7.22247 61.365L6.37427 54.8218L2.27384 54.3677L3.6014 63.5911C3.46159 64.2879 3.58213 65.0118 3.94018 65.6256C4.29822 66.2394 4.86889 66.7005 5.54405 66.9215C6.21922 67.1425 6.95196 67.108 7.60344 66.8247C8.25492 66.5413 8.77987 66.0287 9.07882 65.3841Z" fill="#FFB8B8"/>
<path d="M13.2724 25.2231C12.8704 24.7067 12.3394 24.3056 11.7329 24.0601C11.1263 23.8147 10.4659 23.7336 9.81803 23.8251C9.1702 23.9167 8.55795 24.1775 8.0431 24.5814C7.52825 24.9852 7.12901 25.5178 6.88566 26.1254L0.689356 41.5951C0.0561466 43.176 -0.145762 44.8968 0.104296 46.5814L2.12262 60.1785C2.14866 60.3539 2.21226 60.5216 2.30909 60.6702C2.40591 60.8188 2.53368 60.9447 2.68363 61.0393C2.83358 61.1339 3.0022 61.195 3.17793 61.2184C3.35367 61.2418 3.53239 61.227 3.70186 61.1749L6.36096 60.358C6.63632 60.2735 6.87331 60.0949 7.03069 59.8536C7.18808 59.6123 7.25589 59.3233 7.22233 59.0372C6.2838 51.0322 7.52418 42.9223 10.8124 35.5643L13.7335 29.0279C14.0089 28.4115 14.1116 27.7318 14.0303 27.0615C13.9491 26.3913 13.6871 25.7558 13.2724 25.2231Z" fill="#1F4276"/>
<path d="M17.7495 18.5011C16.6117 18.5257 15.4816 18.3092 14.4335 17.8657C13.3853 17.4222 12.4429 16.7619 11.668 15.9281C10.8931 15.0943 10.3034 14.1059 9.9376 13.0278C9.57178 11.9497 9.43817 10.8064 9.54551 9.67302C9.65285 8.53962 9.99873 7.44176 10.5604 6.45161C11.1221 5.46146 11.8869 4.60143 12.8045 3.92803C13.7221 3.25463 14.7718 2.78311 15.8845 2.54446C16.9973 2.30581 18.1479 2.30543 19.2608 2.54334C20.9233 1.53353 22.8561 0.85403 24.7934 1.02685C26.7306 1.19968 28.6464 2.35024 29.3708 4.15591C30.0952 5.96159 29.317 8.34175 27.5157 9.07557C26.3609 9.54602 25.0569 9.31787 23.8245 9.12816C22.5921 8.93845 21.2477 8.81464 20.1752 9.45077C19.1026 10.0869 18.6205 11.7926 19.5811 12.5879C20.0903 13.0262 20.4539 13.6093 20.6235 14.2595C20.7931 14.9098 20.7606 15.5963 20.5304 16.2276C20.0476 17.4766 18.73 18.4799 17.7495 18.5011Z" fill="#2F2E41"/>
<path d="M8.37041 59.9608L7.02941 110.871C7.02494 111.041 7.0556 111.21 7.11943 111.367C7.18327 111.524 7.27892 111.667 7.40038 111.785C7.52184 111.904 7.66648 111.996 7.82523 112.056C7.98399 112.116 8.15343 112.143 8.3229 112.134L12.7404 111.908C13.0223 111.894 13.2907 111.783 13.5006 111.594C13.7105 111.406 13.8493 111.151 13.8936 110.872L19.148 77.805C19.1704 77.6635 19.2415 77.5343 19.349 77.4396C19.4565 77.3448 19.5936 77.2906 19.7367 77.2861C19.8799 77.2817 20.0201 77.3273 20.1333 77.4151C20.2464 77.503 20.3254 77.6275 20.3567 77.7673L27.469 109.605C27.5071 109.775 27.5808 109.935 27.6853 110.075C27.7898 110.214 27.9227 110.33 28.0753 110.414C28.2279 110.499 28.3966 110.549 28.5703 110.564C28.7441 110.578 28.9188 110.555 29.083 110.497L33.4672 110.229C33.7208 110.139 33.9379 109.968 34.0852 109.742C34.2325 109.517 34.3019 109.249 34.2828 108.981L30.4557 59.479L8.37041 59.9608Z" fill="#2F2E41"/>
<path d="M6.21814 35.78C5.47852 28.0651 11.1488 21.087 18.8766 20.538C22.2062 20.3015 27.3755 20.217 29.0795 24.583C34.2127 37.7352 25.2266 37.4156 28.3227 48.8106C31.4187 60.2057 34.1532 60.8587 29.9051 61.6816C25.657 62.5044 6.55377 67.3617 7.3382 59.3414C7.82037 54.4115 6.95591 43.4757 6.21814 35.78Z" fill="#1F4276"/>
<path d="M28.1704 23.2453C27.5603 23.009 26.8986 22.9379 26.2522 23.0392C25.6059 23.1405 24.9976 23.4106 24.4889 23.8221C23.9802 24.2337 23.589 24.7723 23.3549 25.3834C23.1207 25.9946 23.0518 26.6567 23.1552 27.303L25.568 42.3881C25.9806 44.9676 27.071 47.3912 28.7276 49.4106L36.5639 58.9634C36.6763 59.1005 36.8171 59.2117 36.9765 59.2894C37.1358 59.3671 37.3101 59.4094 37.4874 59.4134C37.6646 59.4175 37.8406 59.3832 38.0034 59.313C38.1662 59.2427 38.3119 59.1381 38.4305 59.0063L40.2919 56.9384C40.4846 56.7242 40.5962 56.4493 40.6073 56.1613C40.6183 55.8734 40.528 55.5907 40.3522 55.3624L39.804 54.6507C35.2452 48.7322 32.3692 41.6918 31.4798 34.2732L30.5206 26.2721C30.4402 25.6017 30.179 24.9659 29.765 24.4327C29.351 23.8995 28.7998 23.489 28.1704 23.2453Z" fill="#1F4276"/>
</svg>
