<svg width="12" height="14" viewBox="0 0 12 14" fill="none" xmlns="http://www.w3.org/2000/svg">
<path fill-rule="evenodd" clip-rule="evenodd" d="M0.252 2.1574C2.98023e-08 2.534 0 3.654 0 5.8919V6.9937C0 10.9403 2.826 12.8562 4.59933 13.6689C5.08 13.8894 5.32067 14 6 14C6.68 14 6.92 13.8894 7.40067 13.6689C9.174 12.8555 12 10.941 12 6.9937V5.8919C12 3.6533 12 2.534 11.748 2.1574C11.4967 1.7815 10.4947 1.421 8.49 0.7007L8.108 0.5635C7.06333 0.1876 6.54133 0 6 0C5.45867 0 4.93667 0.1876 3.892 0.5635L3.51 0.7C1.50533 1.421 0.503333 1.7815 0.252 2.1574ZM8.04 5.95C8.08373 5.89852 8.11738 5.8385 8.13902 5.77337C8.16065 5.70824 8.16987 5.63927 8.16612 5.5704C8.16238 5.50154 8.14575 5.43412 8.11719 5.37199C8.08863 5.30987 8.04869 5.25427 7.99967 5.20835C7.95064 5.16243 7.89348 5.12711 7.83145 5.10438C7.76942 5.08166 7.70374 5.07199 7.63815 5.07592C7.57256 5.07986 7.50835 5.09732 7.44919 5.1273C7.39002 5.15729 7.33706 5.19922 7.29333 5.2507L5.286 7.6125L4.706 6.9307C4.61736 6.82785 4.49355 6.76602 4.36163 6.7587C4.22971 6.75139 4.1004 6.79919 4.00193 6.89167C3.90347 6.98414 3.84386 7.11377 3.83613 7.25225C3.8284 7.39072 3.87317 7.52678 3.96067 7.6307L4.91267 8.7507C4.95957 8.80587 5.01704 8.85001 5.08132 8.88023C5.1456 8.91045 5.21524 8.92608 5.28567 8.92608C5.3561 8.92608 5.42573 8.91045 5.49001 8.88023C5.55429 8.85001 5.61176 8.80587 5.65867 8.7507L8.04 5.95Z" fill="#808080"/>
</svg>
