<svg width="15" height="15" viewBox="0 0 15 15" fill="none" xmlns="http://www.w3.org/2000/svg">
<path d="M3.125 13.125C2.78125 13.125 2.48708 13.0027 2.2425 12.7581C1.99792 12.5135 1.87542 12.2192 1.875 11.875V3.125C1.875 2.78125 1.9975 2.48708 2.2425 2.2425C2.4875 1.99792 2.78167 1.87542 3.125 1.875H6.875C7.05208 1.875 7.20063 1.935 7.32063 2.055C7.44063 2.175 7.50042 2.32333 7.5 2.5C7.49958 2.67667 7.43958 2.82521 7.32 2.94562C7.20042 3.06604 7.05208 3.12583 6.875 3.125H3.125V11.875H6.875C7.05208 11.875 7.20063 11.935 7.32063 12.055C7.44063 12.175 7.50042 12.3233 7.5 12.5C7.49958 12.6767 7.43958 12.8252 7.32 12.9456C7.20042 13.066 7.05208 13.1258 6.875 13.125H3.125ZM10.7344 8.125H6.25C6.07292 8.125 5.92458 8.065 5.805 7.945C5.68542 7.825 5.62542 7.67667 5.625 7.5C5.62458 7.32333 5.68458 7.175 5.805 7.055C5.92542 6.935 6.07375 6.875 6.25 6.875H10.7344L9.5625 5.70312C9.44792 5.58854 9.39062 5.44792 9.39062 5.28125C9.39062 5.11458 9.44792 4.96875 9.5625 4.84375C9.67708 4.71875 9.82292 4.65354 10 4.64812C10.1771 4.64271 10.3281 4.70271 10.4531 4.82812L12.6875 7.0625C12.8125 7.1875 12.875 7.33333 12.875 7.5C12.875 7.66667 12.8125 7.8125 12.6875 7.9375L10.4531 10.1719C10.3281 10.2969 10.1798 10.3569 10.0081 10.3519C9.83646 10.3469 9.68792 10.2817 9.5625 10.1562C9.44792 10.0312 9.39333 9.88292 9.39875 9.71125C9.40417 9.53958 9.46396 9.39625 9.57812 9.28125L10.7344 8.125Z" fill="#FF4564"/>
</svg>
