<svg width="153" height="129" viewBox="0 0 153 129" fill="none" xmlns="http://www.w3.org/2000/svg">
<path d="M124.211 124.889L120.693 124.889L119.019 111.311L124.212 111.312L124.211 124.889Z" fill="#FFB8B8"/>
<path d="M118.179 123.883H124.965V128.157H113.906C113.906 127.596 114.017 127.04 114.231 126.522C114.446 126.003 114.761 125.532 115.158 125.135C115.554 124.738 116.026 124.423 116.544 124.208C117.062 123.993 117.618 123.883 118.179 123.883Z" fill="#2F2E41"/>
<path d="M143.178 124.889L139.659 124.889L137.986 111.311L143.179 111.312L143.178 124.889Z" fill="#FFB8B8"/>
<path d="M137.146 123.883H143.932V128.157H132.873C132.873 127.596 132.984 127.04 133.198 126.522C133.413 126.003 133.728 125.532 134.125 125.135C134.521 124.738 134.992 124.423 135.511 124.208C136.029 123.993 136.585 123.883 137.146 123.883Z" fill="#2F2E41"/>
<path d="M118.119 84.6905L18.3171 99.3463C16.7235 99.5785 15.1028 99.1688 13.8105 98.2071C12.5183 97.2454 11.6601 95.8103 11.4243 94.2165L0.882906 22.4332C0.650625 20.839 1.05997 19.2177 2.02115 17.9251C2.98232 16.6325 4.41682 15.7742 6.00994 15.5384L105.811 0.88255C107.405 0.650364 109.026 1.06005 110.318 2.02173C111.61 2.98341 112.468 4.41855 112.704 6.0123L123.246 77.7956C123.478 79.3899 123.068 81.0111 122.107 82.3037C121.146 83.5963 119.712 84.4547 118.119 84.6905Z" fill="#E6E6E6"/>
<path d="M19.458 94.2828L115.57 80.1688C116.343 80.0553 117.039 79.6393 117.505 79.0124C117.971 78.3855 118.169 77.5989 118.056 76.8258L108.012 8.43336C107.899 7.66024 107.483 6.96387 106.856 6.49743C106.229 6.031 105.443 5.83272 104.67 5.94621L8.55844 20.0602C7.78562 20.1737 7.08956 20.5897 6.62337 21.2166C6.15719 21.8435 5.95907 22.6301 6.07261 23.4032L16.116 91.7956C16.2296 92.5688 16.6454 93.2652 17.2722 93.7316C17.8989 94.198 18.6852 94.3963 19.458 94.2828Z" fill="white"/>
<path d="M132.873 28.3653C137.048 28.3653 140.432 24.9794 140.432 20.8026C140.432 16.6258 137.048 13.2399 132.873 13.2399C128.698 13.2399 125.313 16.6258 125.313 20.8026C125.313 24.9794 128.698 28.3653 132.873 28.3653Z" fill="#FFB8B8"/>
<path d="M107.024 70.1239C107.077 69.7052 107.22 69.3031 107.445 68.9459C107.67 68.5888 107.971 68.2854 108.326 68.057C108.681 67.8286 109.081 67.6809 109.499 67.6241C109.917 67.5674 110.343 67.6031 110.746 67.7286L114.971 62.662L118.674 64.4795L112.608 71.5507C112.352 72.2137 111.862 72.7599 111.231 73.0857C110.599 73.4115 109.871 73.4943 109.182 73.3185C108.494 73.1426 107.894 72.7203 107.496 72.1315C107.098 71.5427 106.93 70.8284 107.024 70.1239Z" fill="#FFB8B8"/>
<path d="M143.384 75.2482C143.204 74.8665 143.11 74.4499 143.108 74.0278C143.107 73.6057 143.198 73.1883 143.375 72.8051C143.552 72.422 143.81 72.0823 144.133 71.81C144.455 71.5377 144.833 71.3394 145.241 71.2292L146.089 64.686L150.189 64.2318L148.862 73.4553C149.002 74.1521 148.881 74.8759 148.523 75.4897C148.165 76.1035 147.594 76.5646 146.919 76.7856C146.244 77.0066 145.511 76.9722 144.86 76.6889C144.208 76.4055 143.683 75.8929 143.384 75.2482Z" fill="#FFB8B8"/>
<path d="M139.191 35.087C139.593 34.5706 140.124 34.1695 140.73 33.924C141.337 33.6786 141.997 33.5975 142.645 33.689C143.293 33.7805 143.905 34.0414 144.42 34.4453C144.935 34.8491 145.334 35.3817 145.577 35.9893L151.774 51.459C152.407 53.0399 152.609 54.7607 152.359 56.4453L150.341 70.0423C150.314 70.2178 150.251 70.3855 150.154 70.5341C150.057 70.6827 149.929 70.8086 149.78 70.9032C149.63 70.9978 149.461 71.0589 149.285 71.0823C149.109 71.1057 148.931 71.0909 148.761 71.0388L146.102 70.2219C145.827 70.1373 145.59 69.9588 145.432 69.7175C145.275 69.4762 145.207 69.1872 145.241 68.901C146.179 60.8961 144.939 52.7862 141.651 45.4282L138.73 38.8918C138.454 38.2754 138.352 37.5957 138.433 36.9254C138.514 36.2552 138.776 35.6197 139.191 35.087Z" fill="#39609C"/>
<path d="M134.714 28.365C135.851 28.3896 136.982 28.1731 138.03 27.7296C139.078 27.2862 140.02 26.6258 140.795 25.792C141.57 24.9582 142.16 23.9698 142.526 22.8917C142.891 21.8136 143.025 20.6703 142.918 19.5369C142.81 18.4035 142.464 17.3057 141.903 16.3155C141.341 15.3254 140.576 14.4653 139.659 13.7919C138.741 13.1185 137.691 12.647 136.579 12.4084C135.466 12.1697 134.315 12.1693 133.202 12.4072C131.54 11.3974 129.607 10.7179 127.67 10.8908C125.733 11.0636 123.817 12.2141 123.092 14.0198C122.368 15.8255 123.146 18.2057 124.947 18.9395C126.102 19.4099 127.406 19.1818 128.639 18.9921C129.871 18.8024 131.215 18.6786 132.288 19.3147C133.361 19.9508 133.843 21.6565 132.882 22.4518C132.373 22.8901 132.009 23.4732 131.84 24.1235C131.67 24.7737 131.703 25.4602 131.933 26.0915C132.416 27.3405 133.733 28.3439 134.714 28.365Z" fill="#2F2E41"/>
<path d="M144.093 69.825L145.434 120.736C145.438 120.905 145.408 121.074 145.344 121.231C145.28 121.389 145.184 121.531 145.063 121.65C144.941 121.768 144.797 121.86 144.638 121.92C144.479 121.98 144.31 122.007 144.14 121.998L139.723 121.773C139.441 121.758 139.172 121.647 138.963 121.459C138.753 121.27 138.614 121.015 138.57 120.736L133.315 87.6692C133.293 87.5277 133.222 87.3984 133.114 87.3037C133.007 87.209 132.87 87.1548 132.726 87.1503C132.583 87.1458 132.443 87.1915 132.33 87.2793C132.217 87.3671 132.138 87.4917 132.106 87.6315L124.994 119.469C124.956 119.639 124.882 119.799 124.778 119.939C124.673 120.078 124.54 120.194 124.388 120.278C124.235 120.363 124.067 120.414 123.893 120.428C123.719 120.442 123.544 120.419 123.38 120.361L118.996 120.093C118.742 120.003 118.525 119.832 118.378 119.606C118.231 119.381 118.161 119.113 118.18 118.845L122.007 69.3432L144.093 69.825Z" fill="#2F2E41"/>
<path d="M146.245 45.6442C146.985 37.9292 141.314 30.9511 133.587 30.4022C130.257 30.1656 125.088 30.0811 123.384 34.4471C118.25 47.5993 127.237 47.2797 124.14 58.6747C121.044 70.0698 118.31 70.7229 122.558 71.5457C126.806 72.3685 145.909 77.2258 145.125 69.2055C144.643 64.2756 145.507 53.3398 146.245 45.6442Z" fill="#39609C"/>
<path d="M125.436 33.1382C126.046 32.9019 126.708 32.8309 127.354 32.9321C128.001 33.0334 128.609 33.3035 129.118 33.7151C129.626 34.1267 130.018 34.6652 130.252 35.2764C130.486 35.8875 130.555 36.5497 130.451 37.1959L128.039 52.281C127.626 54.8606 126.536 57.2841 124.879 59.3036L117.043 68.8564C116.93 68.9935 116.79 69.1047 116.63 69.1823C116.471 69.26 116.297 69.3023 116.119 69.3064C115.942 69.3105 115.766 69.2762 115.603 69.2059C115.441 69.1356 115.295 69.031 115.176 68.8992L113.315 66.8313C113.122 66.6172 113.01 66.3422 112.999 66.0543C112.988 65.7663 113.079 65.4836 113.254 65.2554L113.803 64.5436C118.361 58.6252 121.237 51.5847 122.127 44.1661L123.086 36.165C123.166 35.4947 123.428 34.8588 123.842 34.3256C124.256 33.7924 124.807 33.3819 125.436 33.1382Z" fill="#39609C"/>
<path d="M49.7714 41.7707C49.7857 41.909 49.8283 42.043 49.8963 42.1643C49.9643 42.2856 50.0565 42.3917 50.167 42.4761C50.2776 42.5604 50.4043 42.6213 50.5392 42.6549C50.6742 42.6885 50.8146 42.6942 50.9518 42.6716L54.4641 42.1558C55.0516 42.0695 55.4493 41.5197 55.4402 40.9252C55.4133 38.0761 57.0302 35.7598 60.4446 35.2584C63.3651 34.8295 66.2531 35.8971 66.7689 39.4094C67.1659 42.1128 65.7562 43.5898 63.5177 45.8495C60.9583 48.3521 59.0461 51.1162 59.7874 55.039L59.9359 55.9609C59.9814 56.2396 60.1346 56.4892 60.3625 56.6559C60.5904 56.8226 60.8747 56.893 61.154 56.8519L64.6067 56.3449C64.8889 56.3034 65.1432 56.1516 65.3135 55.9226C65.4838 55.6937 65.5562 55.4066 65.5147 55.1243L65.4491 54.6773C65.0002 51.6205 66.0318 50.5601 68.8199 47.7195C71.1232 45.3676 73.5052 42.7824 72.8306 38.1887C71.886 31.7559 65.9973 29.4458 60.0498 30.3192C54.6558 31.1113 49.1155 34.4909 49.7714 41.7707ZM60.0029 65.3321C60.3362 67.6013 62.3919 69.0129 64.8824 68.6472C67.4751 68.2665 69.0126 66.3271 68.6793 64.058C68.3342 61.708 66.3036 60.3187 63.7109 60.6994C61.2246 61.0645 59.6578 62.9821 60.0029 65.3321Z" fill="#E6E6E6"/>
</svg>
