<svg width="19" height="17" viewBox="0 0 19 17" fill="none" xmlns="http://www.w3.org/2000/svg">
<path d="M13 10.2C12.1667 10.2 11.4583 9.90835 10.875 9.32501C10.2917 8.74168 10 8.03335 10 7.20001C10 6.36668 10.2917 5.65835 10.875 5.07501C11.4583 4.49168 12.1667 4.20001 13 4.20001C13.8333 4.20001 14.5417 4.49168 15.125 5.07501C15.7083 5.65835 16 6.36668 16 7.20001C16 8.03335 15.7083 8.74168 15.125 9.32501C14.5417 9.90835 13.8333 10.2 13 10.2ZM8 16.2C7.71667 16.2 7.47934 16.104 7.288 15.912C7.09667 15.72 7.00067 15.4827 7 15.2V14.3C7 13.95 7.08334 13.6167 7.25 13.3C7.41667 12.9833 7.65 12.7333 7.95 12.55C8.7 12.1 9.496 11.7627 10.338 11.538C11.18 11.3133 12.0673 11.2007 13 11.2C13.9327 11.1993 14.8203 11.312 15.663 11.538C16.5057 11.764 17.3013 12.1013 18.05 12.55C18.35 12.7333 18.5833 12.9833 18.75 13.3C18.9167 13.6167 19 13.95 19 14.3V15.2C19 15.4833 18.904 15.721 18.712 15.913C18.52 16.105 18.2827 16.2007 18 16.2H8ZM7 10.2H1C0.71667 10.2 0.479337 10.104 0.288004 9.91201C0.0966702 9.72001 0.000670115 9.48268 3.44827e-06 9.20001C-0.000663218 8.91735 0.0953369 8.68001 0.288004 8.48801C0.48067 8.29601 0.718003 8.20001 1 8.20001H7C7.28334 8.20001 7.521 8.29601 7.713 8.48801C7.905 8.68001 8.00067 8.91735 8 9.20001C7.99934 9.48268 7.90334 9.72035 7.712 9.91301C7.52067 10.1057 7.28334 10.2013 7 10.2ZM11 2.20001H1C0.71667 2.20001 0.479337 2.10401 0.288004 1.91201C0.0966702 1.72001 0.000670115 1.48268 3.44827e-06 1.20001C-0.000663218 0.917346 0.0953369 0.680012 0.288004 0.488012C0.48067 0.296012 0.718003 0.200012 1 0.200012H11C11.2833 0.200012 11.521 0.296012 11.713 0.488012C11.905 0.680012 12.0007 0.917346 12 1.20001C11.9993 1.48268 11.9033 1.72035 11.712 1.91301C11.5207 2.10568 11.2833 2.20135 11 2.20001ZM8.1 6.20001H1C0.71667 6.20001 0.479337 6.10401 0.288004 5.91201C0.0966702 5.72001 0.000670115 5.48268 3.44827e-06 5.20001C-0.000663218 4.91735 0.0953369 4.68001 0.288004 4.48801C0.48067 4.29601 0.718003 4.20001 1 4.20001H9C8.76667 4.48335 8.57934 4.79168 8.438 5.12501C8.29667 5.45835 8.184 5.81668 8.1 6.20001Z" fill="#0077B6"/>
</svg>
