<svg width="15" height="15" viewBox="0 0 15 15" fill="none" xmlns="http://www.w3.org/2000/svg">
<path d="M10.2515 11.5862C9.69674 11.5862 9.24638 11.1358 9.24482 10.5795L9.24482 3.69786L11.2582 3.69786L11.2582 10.5795C11.2597 11.1358 10.8094 11.5862 10.2515 11.5862Z" fill="#1F4276"/>
<path d="M3.35587 4.71231C3.35587 4.15754 3.80623 3.70718 4.36256 3.70563L11.2442 3.70563L11.2442 5.719L4.361 5.71744C3.80623 5.71744 3.35587 5.26708 3.35587 4.71231Z" fill="#1F4276"/>
<path d="M3.6504 11.3025C3.2577 10.9098 3.2577 10.274 3.6504 9.87818L8.51708 5.0115L9.9414 6.43582L5.07472 11.3025C4.68358 11.6968 4.04466 11.6968 3.6504 11.3025Z" fill="#1F4276"/>
</svg>
