<svg width="12" height="13" viewBox="0 0 12 13" fill="none" xmlns="http://www.w3.org/2000/svg">
<path d="M5.26392 13C5.09924 13 4.95651 12.9449 4.83572 12.8346C4.71445 12.7244 4.63919 12.5869 4.60994 12.4222L4.42379 10.9113C4.19778 10.8415 3.95336 10.7322 3.69054 10.5834C3.4282 10.4342 3.20478 10.2743 3.02028 10.1039L1.6649 10.699C1.51533 10.7664 1.36339 10.7736 1.2091 10.7207C1.0548 10.6677 0.935897 10.5678 0.85238 10.4209L0.0886951 9.07833C0.0051781 8.93148 -0.019358 8.77789 0.0150868 8.61756C0.0495317 8.45722 0.131633 8.32578 0.261391 8.22322L1.44478 7.32045C1.42355 7.18948 1.40633 7.05491 1.39312 6.91672C1.37896 6.77806 1.37188 6.64348 1.37188 6.513C1.37188 6.39167 1.37896 6.26408 1.39312 6.13022C1.40633 5.99637 1.42355 5.84567 1.44478 5.67811L0.261391 4.77534C0.131633 4.67278 0.0518909 4.53917 0.0221645 4.3745C-0.00756185 4.20984 0.0190976 4.05384 0.102143 3.9065L0.85238 2.6065C0.935897 2.46832 1.0548 2.37058 1.2091 2.31328C1.36339 2.25598 1.51533 2.26104 1.6649 2.32845L3.00684 2.90911C3.21822 2.72952 3.44707 2.5675 3.69337 2.42306C3.93873 2.27861 4.17772 2.16691 4.41035 2.08795L4.61064 0.577059C4.63943 0.412392 4.71445 0.274929 4.83572 0.16467C4.95698 0.0544105 5.09971 -0.000478341 5.26392 3.1401e-06H6.73608C6.90076 3.1401e-06 7.04349 0.0551328 7.16428 0.165392C7.28555 0.275651 7.36081 0.413114 7.39006 0.577781L7.57621 2.10311C7.84752 2.20037 8.08722 2.31184 8.2953 2.4375C8.50339 2.56317 8.71784 2.72061 8.93867 2.90984L10.3485 2.32917C10.4986 2.26176 10.6508 2.25671 10.8051 2.314C10.9594 2.3713 11.078 2.46904 11.1611 2.60722L11.9113 3.92095C11.9948 4.06828 12.0194 4.22187 11.9849 4.38172C11.9505 4.54158 11.8684 4.67326 11.7386 4.77678L10.5014 5.72C10.5401 5.86926 10.5618 6.00624 10.5665 6.13095C10.5713 6.25565 10.5736 6.37843 10.5736 6.49928C10.5736 6.61146 10.5689 6.72967 10.5595 6.85389C10.5505 6.97859 10.5297 7.1293 10.4972 7.306L11.6933 8.22322C11.8231 8.32578 11.9075 8.45722 11.9467 8.61756C11.9859 8.77789 11.9637 8.93148 11.8802 9.07833L11.1257 10.4065C11.0426 10.5538 10.9216 10.6537 10.7626 10.7062C10.6036 10.7592 10.4493 10.752 10.2997 10.6846L8.93867 10.0894C8.71831 10.2787 8.49654 10.4407 8.27336 10.5755C8.05018 10.7103 7.81779 10.8174 7.57621 10.8969L7.38935 12.4215C7.36057 12.5862 7.28555 12.7236 7.16428 12.8339C7.04302 12.9441 6.90028 12.9995 6.73608 13H5.26392ZM5.98089 8.30556C6.47444 8.30556 6.89274 8.13054 7.23577 7.7805C7.5788 7.43046 7.75032 7.00363 7.75032 6.5C7.75032 5.99637 7.5788 5.56954 7.23577 5.2195C6.89274 4.86947 6.47444 4.69445 5.98089 4.69445C5.48451 4.69445 5.06551 4.86947 4.72389 5.2195C4.38227 5.56954 4.21146 5.99637 4.21146 6.5C4.21146 7.00363 4.38227 7.43046 4.72389 7.7805C5.06551 8.13054 5.48451 8.30556 5.98089 8.30556Z" fill="#808080"/>
</svg>
