<svg width="38" height="38" viewBox="0 0 38 38" fill="none" xmlns="http://www.w3.org/2000/svg">
<g clip-path="url(#clip0_28_39)">
<path d="M24.7 0.724755C24.7 0.324483 24.376 0 23.9762 0H14.0238C13.624 0 13.3 0.324484 13.3 0.724755V12.5679C13.3 12.9682 12.976 13.2926 12.5762 13.2926H0.72381C0.324061 13.2926 0 13.6171 0 14.0174V23.9828C0 24.383 0.32406 24.7075 0.72381 24.7075H12.5762C12.976 24.7075 13.3 25.032 13.3 25.4323V37.2752C13.3 37.6757 13.624 38 14.0238 38H23.9762C24.376 38 24.7 37.6757 24.7 37.2752V25.4323C24.7 25.032 25.0241 24.7075 25.4238 24.7075H37.2762C37.6761 24.7075 38 24.383 38 23.9828V14.0174C38 13.6171 37.6761 13.2926 37.2762 13.2926H25.4238C25.0241 13.2926 24.7 12.9682 24.7 12.5679V0.724755Z" fill="#0077B6"/>
<mask id="mask0_28_39" style="mask-type:luminance" maskUnits="userSpaceOnUse" x="10" y="8" width="18" height="18">
<path d="M27.3238 8.48004H10.6762V25.1277H27.3238V8.48004Z" fill="white"/>
</mask>
<g mask="url(#mask0_28_39)">
<path d="M24.2365 16.1081C23.9209 15.3977 23.4621 14.7601 22.8888 14.2352L22.4157 13.8011C22.3996 13.7868 22.3803 13.7766 22.3594 13.7715C22.3385 13.7664 22.3166 13.7665 22.2958 13.7718C22.2749 13.7771 22.2557 13.7874 22.2397 13.8019C22.2238 13.8164 22.2116 13.8345 22.2043 13.8548L21.993 14.4612C21.8613 14.8416 21.6191 15.2301 21.2761 15.6122C21.2533 15.6366 21.2273 15.6431 21.2094 15.6447C21.1915 15.6463 21.1639 15.6431 21.1395 15.6203C21.1167 15.6008 21.1054 15.5716 21.107 15.5423C21.1671 14.5636 20.8745 13.4597 20.234 12.2583C19.7039 11.2601 18.9675 10.4813 18.0473 9.93834L17.3759 9.54328C17.2881 9.49128 17.1759 9.55957 17.1808 9.66199L17.2166 10.4423C17.241 10.9756 17.1792 11.447 17.0329 11.8388C16.854 12.3184 16.5971 12.7639 16.2687 13.1638C16.0402 13.4418 15.7812 13.6932 15.4965 13.9133C14.811 14.4403 14.2535 15.1156 13.8659 15.8886C13.4793 16.6683 13.2779 17.5268 13.2774 18.3971C13.2774 19.1644 13.4286 19.9074 13.7277 20.6081C14.0165 21.2827 14.4334 21.895 14.9551 22.4111C15.4819 22.9313 16.0932 23.341 16.7744 23.6255C17.4799 23.9214 18.2278 24.0709 19 24.0709C19.7722 24.0709 20.5201 23.9214 21.2257 23.6271C21.9052 23.3443 22.5231 22.9318 23.0449 22.4127C23.5716 21.8924 23.9845 21.2844 24.2723 20.6098C24.571 19.911 24.7242 19.1587 24.7226 18.3987C24.7226 17.6054 24.5601 16.8348 24.2365 16.1081Z" fill="white"/>
<path d="M19.754 15.5674H17.8841V18.3721H15.0794V20.2419H17.8841V24.9166H19.754V20.2419H22.5588V18.3721H19.754V15.5674Z" fill="#0077B6"/>
</g>
</g>
<defs>
<clipPath id="clip0_28_39">
<rect width="38" height="38" fill="white"/>
</clipPath>
</defs>
</svg>
